<svg version="1.1" id="Layer_1" xmlns="http://www.w3.org/2000/svg" xmlns:xlink="http://www.w3.org/1999/xlink" x="0px" y="0px"
	 width="100%" viewBox="0 0 1024 1024" enable-background="new 0 0 1024 1024" xml:space="preserve">
<path fill="#15377B" opacity="1.000000" stroke="none" 
	d="
M645.000000,1025.000000 
	C430.000000,1025.000000 215.500000,1025.000000 1.000000,1025.000000 
	C1.000000,683.666687 1.000000,342.333344 1.000000,1.000000 
	C342.333344,1.000000 683.666687,1.000000 1025.000000,1.000000 
	C1025.000000,342.333344 1025.000000,683.666687 1025.000000,1025.000000 
	C898.500000,1025.000000 772.000000,1025.000000 645.000000,1025.000000 
M770.177734,415.742401 
	C770.581604,415.357513 770.985474,414.972656 772.074280,414.324005 
	C779.113220,413.955414 779.178528,413.954559 779.087097,406.904816 
	C778.863098,389.638916 778.530640,372.374298 778.327759,355.108185 
	C778.230164,346.801331 778.317566,346.805115 770.259216,345.853943 
	C769.991333,345.822327 769.760193,345.480194 769.029724,344.899353 
	C769.029724,340.153473 768.833801,335.019653 769.094727,329.909180 
	C769.286316,326.157318 767.840637,324.674896 763.499695,324.919952 
	C759.629333,323.548431 758.407410,320.383301 758.106873,316.713318 
	C757.903381,314.229675 758.375977,311.609344 757.736023,309.271942 
	C757.324768,307.769714 755.382385,305.524139 754.230042,305.584747 
	C748.679993,305.876831 745.884705,302.395660 742.838623,298.735840 
	C741.114014,296.663788 738.900146,294.869415 736.604187,293.433502 
	C733.335144,291.388977 728.988159,290.878876 727.822876,286.127747 
	C727.611206,285.264954 725.716980,284.259369 724.604309,284.265015 
	C718.325623,284.296844 714.937378,280.190643 712.155334,275.567169 
	C709.525269,271.196350 707.252014,266.575531 705.205383,261.896912 
	C701.867737,254.266907 695.211792,250.172119 687.139832,251.018661 
	C682.515991,251.503601 677.865479,251.733200 673.227844,252.089005 
	C670.177612,252.322998 668.096558,253.404236 666.995605,256.738251 
	C665.788757,260.393372 663.648865,263.740387 661.053650,267.281982 
	C659.891663,267.175934 658.723694,267.114014 657.568542,266.957428 
	C611.942505,260.772308 571.067200,272.256104 534.706848,300.197021 
	C527.342773,305.855896 520.389954,312.049774 513.126892,318.097443 
	C505.220825,311.628021 497.615753,305.188568 489.787384,299.033051 
	C420.929718,244.889847 320.332306,256.857941 266.588348,325.923859 
	C238.025955,362.629181 228.230240,404.463318 235.868607,450.157990 
	C242.439743,489.468201 262.719818,521.667175 290.904633,548.843933 
	C351.227509,607.009277 412.069672,664.636047 472.695923,722.486755 
	C483.663269,732.951965 494.577515,743.473267 505.591461,753.889160 
	C510.534271,758.563477 515.694092,758.675720 520.171326,754.394165 
	C535.340759,739.888245 550.460449,725.330139 565.647583,710.842712 
	C616.034607,662.777527 666.556824,614.853333 716.765198,566.602417 
	C729.832825,554.044312 742.977844,541.309998 754.185974,527.151489 
	C763.905884,514.872803 770.934753,500.463928 779.881714,486.939850 
	C785.011841,485.413879 786.615967,482.386414 786.588074,476.934479 
	C786.565002,472.440704 786.534058,467.395142 788.467346,463.590515 
	C790.619263,459.355835 791.199219,455.629028 789.209473,451.823425 
	C786.924133,447.452454 784.630859,442.440186 780.895508,439.623413 
	C775.239807,435.358490 772.315857,429.771698 769.314087,423.005981 
	C769.412109,420.788727 769.510132,418.571442 770.177734,415.742401 
z"/>
<path fill="#E83A45" opacity="1.000000" stroke="none" 
	d="
M779.153076,486.996582 
	C770.934753,500.463928 763.905884,514.872803 754.185974,527.151489 
	C742.977844,541.309998 729.832825,554.044312 716.765198,566.602417 
	C666.556824,614.853333 616.034607,662.777527 565.647583,710.842712 
	C550.460449,725.330139 535.340759,739.888245 520.171326,754.394165 
	C515.694092,758.675720 510.534271,758.563477 505.591461,753.889160 
	C494.577515,743.473267 483.663269,732.951965 472.695923,722.486755 
	C412.069672,664.636047 351.227509,607.009277 290.904633,548.843933 
	C262.719818,521.667175 242.439743,489.468201 235.868607,450.157990 
	C228.230240,404.463318 238.025955,362.629181 266.588348,325.923859 
	C320.332306,256.857941 420.929718,244.889847 489.787384,299.033051 
	C497.615753,305.188568 505.220825,311.628021 513.126892,318.097443 
	C520.389954,312.049774 527.342773,305.855896 534.706848,300.197021 
	C571.067200,272.256104 611.942505,260.772308 657.568542,266.957428 
	C658.723694,267.114014 659.891663,267.175934 661.811218,267.448608 
	C694.710571,273.872223 722.717468,288.049377 746.258240,310.971619 
	C748.885803,313.530212 749.503906,315.899506 748.809265,319.319397 
	C747.047852,327.990906 742.957886,335.117096 735.468933,340.569275 
	C733.450867,341.414795 731.795227,342.126312 729.800720,342.703613 
	C728.394348,342.009369 727.326782,341.449371 726.135742,340.643677 
	C725.708069,340.204742 725.403931,340.011536 724.958984,339.524994 
	C722.890991,337.478119 720.963806,335.724548 718.904968,333.679657 
	C717.181641,332.023651 715.589905,330.658966 713.876099,329.142090 
	C713.754028,328.989868 713.376526,328.890991 713.221130,328.643524 
	C712.727478,328.215912 712.389160,328.035797 711.939697,327.635132 
	C711.594421,327.157196 711.303894,327.016205 710.863159,326.788025 
	C710.576111,326.326599 710.318420,326.192749 709.795044,325.906464 
	C707.119751,323.948364 704.645691,322.266693 701.962402,320.331573 
	C661.485901,293.224304 610.356873,293.170197 568.586731,318.999939 
	C551.040527,329.850159 536.431702,344.288788 521.819702,358.659302 
	C516.002075,364.380768 510.416595,364.397797 504.448334,358.805206 
	C494.607269,349.583557 484.981537,340.096741 474.703735,331.383850 
	C453.442383,313.359894 429.041229,301.907990 400.974426,300.270752 
	C352.020020,297.415100 313.237885,316.747040 287.139923,357.949799 
	C261.084595,399.085236 261.786194,442.033081 285.124237,484.515350 
	C300.995178,513.405334 326.202423,534.029907 349.890259,556.395874 
	C363.135376,569.239014 376.204926,581.798218 389.313690,594.316345 
	C422.309174,625.825195 455.317749,657.320312 488.331757,688.809753 
	C496.496887,696.597778 504.702789,704.343079 513.120972,712.327209 
	C515.107117,710.472107 516.808411,708.916748 518.472839,707.322937 
	C528.575256,697.648804 538.655701,687.951660 548.768555,678.288452 
	C598.122375,631.129028 647.395569,583.884644 696.887634,536.870605 
	C716.051697,518.666077 734.512634,500.066162 745.513000,475.409393 
	C746.245361,473.767731 749.450439,472.405945 751.551331,472.338318 
	C761.534424,472.016815 771.533508,472.179321 781.526794,472.205658 
	C782.266296,472.207642 783.005005,472.494385 784.226318,472.749512 
	C782.433228,477.785126 780.793152,482.390869 779.153076,486.996582 
z"/>
<path fill="#13347A" opacity="1.000000" stroke="none" 
	d="
M710.956909,326.991577 
	C711.303894,327.016205 711.594421,327.157196 712.152710,327.817322 
	C712.776794,328.443726 713.076660,328.667358 713.376526,328.890991 
	C713.376526,328.890991 713.754028,328.989868 713.941895,329.475403 
	C715.765320,331.297638 717.401001,332.634308 719.036621,333.970978 
	C720.963806,335.724548 722.890991,337.478119 725.143799,339.711304 
	C725.732727,340.423706 725.995972,340.656555 726.259277,340.889374 
	C727.326782,341.449371 728.394348,342.009369 729.864258,342.810028 
	C730.266724,343.050659 730.399048,343.260284 730.490234,343.389038 
	C730.711487,343.686188 730.849426,343.847931 730.938171,344.354340 
	C728.920837,347.470490 726.960449,350.235260 724.617554,352.990448 
	C722.148193,352.694336 720.061218,352.407776 717.948975,352.117767 
	C717.712097,359.235687 721.866150,364.432739 728.374756,365.016541 
	C729.249146,365.056519 729.748779,365.079926 730.175720,365.476562 
	C730.152344,370.797668 730.103455,375.749329 730.289917,380.692047 
	C730.392944,383.421143 729.237061,384.934509 726.624817,384.808685 
	C722.171997,384.594177 721.928894,387.407196 721.929810,390.651184 
	C721.932434,400.475952 721.892456,410.300690 721.864807,420.125458 
	C721.839844,428.993958 721.837402,428.993958 730.180969,431.398163 
	C730.180969,436.543518 729.962830,441.858215 730.307190,447.136200 
	C730.417664,448.829254 732.014038,450.425415 732.930542,452.065918 
	C733.935242,450.471466 735.693542,448.928345 735.806274,447.273163 
	C736.175049,441.859070 735.944641,436.404144 735.944641,430.620331 
	C738.752930,430.423676 740.877686,430.274933 743.193298,430.359985 
	C745.127563,430.423584 746.984985,430.544281 748.553650,429.928802 
	C749.119507,429.706787 748.991943,427.717346 749.315552,425.690613 
	C746.973694,427.175476 745.651245,428.013947 744.339355,428.393555 
	C744.363464,415.018768 744.355957,402.102753 744.408447,389.187012 
	C744.418884,386.611603 744.138428,384.346497 740.776672,384.731232 
	C736.381531,385.234222 736.125732,382.656097 736.060242,379.266327 
	C735.968933,374.540802 735.371399,369.825043 734.992126,364.642578 
	C735.272888,356.265137 735.552124,348.350220 735.831360,340.435272 
	C742.957886,335.117096 747.047852,327.990906 748.809265,319.319397 
	C749.503906,315.899506 748.885803,313.530212 746.258240,310.971619 
	C722.717468,288.049377 694.710571,273.872223 662.242188,267.418457 
	C663.648865,263.740387 665.788757,260.393372 666.995605,256.738251 
	C668.096558,253.404236 670.177612,252.322998 673.227844,252.089005 
	C677.865479,251.733200 682.515991,251.503601 687.139832,251.018661 
	C695.211792,250.172119 701.867737,254.266907 705.205383,261.896912 
	C707.252014,266.575531 709.525269,271.196350 712.155334,275.567169 
	C714.937378,280.190643 718.325623,284.296844 724.604309,284.265015 
	C725.716980,284.259369 727.611206,285.264954 727.822876,286.127747 
	C728.988159,290.878876 733.335144,291.388977 736.604187,293.433502 
	C738.900146,294.869415 741.114014,296.663788 742.838623,298.735840 
	C745.884705,302.395660 748.679993,305.876831 754.230042,305.584747 
	C755.382385,305.524139 757.324768,307.769714 757.736023,309.271942 
	C758.375977,311.609344 757.903381,314.229675 758.106873,316.713318 
	C758.407410,320.383301 759.629333,323.548431 763.715149,325.388977 
	C763.625732,330.239166 763.320862,334.620331 762.677551,339.078003 
	C758.674805,341.924652 754.747803,344.414032 751.411743,347.535034 
	C747.111816,351.557617 749.005554,359.434357 754.428589,361.438354 
	C754.479187,377.688538 754.474548,393.477844 754.339355,409.266022 
	C754.312622,412.392975 754.888672,414.659912 758.631836,414.169189 
	C762.921448,413.606750 763.557922,415.957214 763.496948,419.490143 
	C763.365051,427.132935 763.455933,434.780457 763.529541,442.425323 
	C763.549500,444.498230 763.162537,447.459106 766.449158,446.800323 
	C767.615540,446.566559 768.955750,443.891205 769.059998,442.256683 
	C769.450562,436.131409 769.362915,429.975647 769.454529,423.831299 
	C772.315857,429.771698 775.239807,435.358490 780.895508,439.623413 
	C784.630859,442.440186 786.924133,447.452454 789.209473,451.823425 
	C791.199219,455.629028 790.619263,459.355835 788.467346,463.590515 
	C786.534058,467.395142 786.565002,472.440704 786.588074,476.934479 
	C786.615967,482.386414 785.011841,485.413879 779.517395,486.968201 
	C780.793152,482.390869 782.433228,477.785126 784.226318,472.749512 
	C783.005005,472.494385 782.266296,472.207642 781.526794,472.205658 
	C771.533508,472.179321 761.534424,472.016815 751.551331,472.338318 
	C749.450439,472.405945 746.245361,473.767731 745.513000,475.409393 
	C734.512634,500.066162 716.051697,518.666077 696.887634,536.870605 
	C647.395569,583.884644 598.122375,631.129028 548.768555,678.288452 
	C538.655701,687.951660 528.575256,697.648804 518.472839,707.322937 
	C516.808411,708.916748 515.107117,710.472107 513.120972,712.327209 
	C504.702789,704.343079 496.496887,696.597778 488.331757,688.809753 
	C455.317749,657.320312 422.309174,625.825195 389.313690,594.316345 
	C376.204926,581.798218 363.135376,569.239014 350.305481,556.391357 
	C354.598114,558.119568 358.663239,560.098389 362.654297,562.216797 
	C364.385895,563.135803 366.025604,565.341858 367.602905,565.246155 
	C374.723999,564.814331 377.505981,570.332520 381.443604,574.392883 
	C382.466583,575.447815 383.966736,576.942993 385.104889,576.827576 
	C390.166351,576.314331 395.156036,575.129272 400.210754,574.501953 
	C404.101471,574.019165 405.929230,572.782715 404.521881,568.431458 
	C403.138702,564.154907 404.088104,560.492432 409.242310,558.660156 
	C409.771057,556.608459 410.269287,554.843628 410.297577,553.071228 
	C410.409088,546.090393 410.363373,539.107178 410.396942,532.124939 
	C410.407806,529.871582 410.475250,527.601501 413.736176,527.914001 
	C419.123566,528.430176 420.047119,525.283020 420.021332,520.791687 
	C419.917358,502.670654 419.994904,484.548676 419.995789,466.427032 
	C419.996155,458.431885 419.985321,458.436859 412.008270,457.843414 
	C411.737244,457.823242 411.489532,457.489990 410.598358,456.844452 
	C410.598358,453.670624 410.683594,450.038422 410.577911,446.411804 
	C410.428467,441.283539 408.794220,440.478668 403.791138,442.754639 
	C403.633759,440.072723 403.698059,437.672363 403.762390,435.272034 
	C406.184143,435.666199 408.975677,435.441254 410.934204,436.610992 
	C413.391724,438.078796 414.846741,441.244110 417.316101,442.668213 
	C420.450623,444.475952 422.085663,446.751221 422.140961,450.167694 
	C422.252716,457.078064 424.126740,463.386169 427.234833,469.591675 
	C430.771210,476.652344 432.537720,484.064056 430.360413,492.256500 
	C429.289185,496.287140 430.033691,500.856445 430.281738,505.163269 
	C430.468964,508.413788 431.858002,510.986237 435.809875,511.408234 
	C436.283051,514.684937 434.813538,515.794250 432.169861,515.652283 
	C428.684021,515.465149 427.442871,517.341248 427.455231,520.520264 
	C427.508667,534.267639 427.547882,548.015015 427.286499,561.979065 
	C424.645233,563.993225 422.535614,566.303772 419.916443,567.457397 
	C416.704163,568.872192 411.807831,568.270935 409.965881,570.480530 
	C408.129547,572.683411 409.115295,577.282837 408.965759,580.835815 
	C408.802795,584.709412 407.251038,586.232117 403.194366,585.119019 
	C396.485657,583.278320 393.164856,586.643066 395.495544,593.266663 
	C396.335907,595.654846 398.913025,597.531982 400.935974,599.381592 
	C404.462555,602.606018 408.144196,605.664062 411.821960,608.718323 
	C413.407104,610.034729 415.144592,611.167786 416.812866,612.384094 
	C417.556091,610.544006 418.574615,608.761108 418.971375,606.849182 
	C419.443237,604.575134 419.902649,601.822083 422.697845,602.990234 
	C425.547607,604.181274 428.253265,606.426270 430.090668,608.901245 
	C430.647644,609.651428 428.477844,613.086060 426.895386,614.599243 
	C424.870422,616.535522 423.999573,618.040466 425.846710,620.504883 
	C426.832825,621.820618 427.163147,623.737793 428.328003,624.783691 
	C430.054718,626.334229 432.519501,628.618591 434.195221,628.275024 
	C436.273621,627.848816 438.190063,625.271179 439.547882,623.208984 
	C440.348511,621.992981 439.441071,619.696899 440.184418,618.387573 
	C441.151489,616.684326 442.789978,614.659302 444.504181,614.230469 
	C447.997894,613.356445 450.878052,614.842529 452.722534,618.313049 
	C453.782623,620.307678 455.306030,622.239258 457.073639,623.619263 
	C458.616669,624.823975 460.793762,625.216492 462.690735,625.967834 
	C463.011200,623.937744 463.554321,621.914001 463.612427,619.876404 
	C463.828186,612.307922 463.884369,604.734863 464.430847,597.095703 
	C466.770844,597.130432 468.680420,597.233032 470.947144,597.354858 
	C470.947144,605.271973 470.852600,612.582642 471.056091,619.885010 
	C471.084351,620.899780 472.582306,621.873535 473.399902,622.866272 
	C474.485138,621.932068 476.008179,621.193237 476.536316,620.010254 
	C477.099548,618.748718 476.748596,617.067322 476.751282,615.569153 
	C476.762299,609.469116 476.755859,603.369019 476.755859,597.424377 
	C480.417877,596.395935 484.989624,598.487244 484.901093,592.520020 
	C484.715851,580.033325 484.789886,567.541748 484.874603,555.052979 
	C484.895294,552.002258 483.596649,550.828125 480.672913,550.968933 
	C479.563721,551.022339 478.439972,550.772888 476.915680,550.620850 
	C476.915680,548.241211 476.915680,546.121887 477.084473,543.668823 
	C478.601471,539.776855 479.709564,536.101990 481.364746,532.692749 
	C483.061096,529.198608 485.365631,528.429199 488.077637,532.103271 
	C488.989319,533.338440 490.609772,534.050476 491.976929,535.464966 
	C491.984528,541.617798 491.921448,547.307190 491.587646,553.250732 
	C489.461945,558.406494 488.883453,563.264893 491.865540,568.469604 
	C491.933441,574.094238 492.172394,579.266479 491.883209,584.408936 
	C491.653076,588.500977 493.062927,590.424622 497.216339,589.945374 
	C500.571930,589.558105 501.543091,591.173767 501.481720,594.300964 
	C501.331482,601.954407 501.238983,609.617432 501.499420,617.263733 
	C501.555542,618.911194 502.987152,621.694153 504.148071,621.899231 
	C507.593689,622.507751 506.815674,619.378235 506.850372,617.417480 
	C506.988770,609.596558 506.851746,601.767334 507.178467,593.956360 
	C507.236786,592.562866 509.101532,590.018921 509.979706,590.083313 
	C515.993408,590.524597 516.619080,587.347412 516.585999,582.394897 
	C516.458130,563.263855 516.700562,544.130371 517.194092,524.963013 
	C522.310303,522.386963 526.698547,524.117615 531.153564,526.317444 
	C531.199951,527.071106 531.167603,527.505676 530.962891,528.285034 
	C530.932373,531.419312 531.074158,534.208801 531.304688,537.393127 
	C531.333496,538.859009 531.273682,539.930054 531.028809,541.284058 
	C530.983521,544.711670 531.123413,547.856323 531.358521,551.442383 
	C531.969543,555.244080 532.485352,558.604492 533.058105,562.321472 
	C535.402100,566.118652 537.689209,569.559265 540.054565,573.463013 
	C540.158447,584.895386 540.042114,595.868347 540.318359,606.831299 
	C540.380493,609.297607 538.245972,613.808044 543.203491,613.760071 
	C547.731750,613.716370 545.772827,609.470520 545.822937,607.104309 
	C546.062134,595.806458 545.972473,584.501648 545.995422,573.199280 
	C546.002747,569.584900 545.996582,565.970459 545.996582,562.520386 
	C553.929932,560.790894 553.936523,560.790894 553.948242,553.143616 
	C553.961975,544.168213 553.387512,535.140930 554.191101,526.237488 
	C554.652039,521.130920 553.465576,519.535095 548.687927,519.960449 
	C547.923340,520.028503 547.128784,519.760620 546.433167,519.660339 
	C545.909912,515.603149 545.428467,511.870209 545.218018,508.045227 
	C546.403137,508.193268 547.450806,508.223663 548.210205,508.706970 
	C553.902832,512.330505 559.679932,514.158691 565.987549,510.465027 
	C566.084412,519.429321 566.130676,527.928894 566.142273,536.428406 
	C566.154053,545.038696 566.139038,545.038696 574.913086,546.494263 
	C575.002502,548.336121 575.177185,550.285400 575.178528,552.234741 
	C575.186218,563.734619 575.023743,575.237000 575.237549,586.732544 
	C575.283508,589.206909 573.150452,593.739868 578.201477,593.604065 
	C583.110352,593.472107 580.884888,588.985291 580.945190,586.521606 
	C581.230774,574.861572 581.091553,563.191467 581.139221,551.525085 
	C581.146362,549.773987 581.341797,548.023743 581.426392,546.657410 
	C584.773499,544.964783 589.928528,547.721619 589.954895,541.865051 
	C590.024719,526.365906 590.035828,510.865204 589.827698,495.368378 
	C589.812378,494.230499 587.737854,492.065979 586.818115,492.167480 
	C581.283142,492.778473 580.796143,489.625305 581.118286,485.470520 
	C581.285400,483.316040 581.250793,481.145935 581.627808,479.072937 
	C584.490845,480.462097 585.983521,479.477722 587.671021,477.298676 
	C591.909302,471.825684 597.947937,472.798157 600.783752,479.006317 
	C601.469238,480.507019 602.954712,481.642242 604.150330,483.352814 
	C604.253601,489.018921 604.300476,494.277771 604.299377,499.536621 
	C604.297302,509.380341 604.285767,509.380341 613.796448,510.663147 
	C613.448303,516.158875 613.007629,521.284119 613.090637,526.400879 
	C613.142700,529.609741 613.981873,532.805908 614.613892,536.255005 
	C614.837341,536.677307 614.914734,536.852356 614.926392,537.317871 
	C614.396912,538.724182 613.933167,539.840088 613.550049,540.761780 
	C619.522522,542.626282 622.655945,537.455750 627.024780,536.092468 
	C634.997986,533.604431 641.376221,529.134277 648.224548,524.752747 
	C657.806946,518.621826 661.609619,509.829895 663.973083,499.248474 
	C664.433472,489.983704 664.770935,481.088623 665.108276,472.198456 
	C666.715393,472.063507 667.704834,471.942749 668.697510,471.903198 
	C675.169983,471.645325 675.135925,471.650879 675.168762,464.981384 
	C675.204834,457.656128 675.312622,450.331238 675.727783,442.964050 
	C677.626831,441.449066 679.233215,440.021240 680.736694,438.492310 
	C682.823975,436.369781 684.833923,434.171326 687.150513,432.269592 
	C689.976624,433.041260 692.529297,433.548706 695.624146,434.163910 
	C695.624146,439.362396 695.476318,444.631134 695.737854,449.879456 
	C695.796265,451.052429 697.290710,452.153900 698.123901,453.288269 
	C699.111816,452.132629 700.838684,451.044983 700.952393,449.808960 
	C701.330933,445.694092 700.912476,441.506470 701.279602,437.389557 
	C701.395264,436.092163 703.007324,433.893799 703.959290,433.880524 
	C708.648560,433.815094 709.264343,431.220428 709.223694,427.368042 
	C709.127441,418.249878 709.322083,409.128632 709.745422,399.948059 
	C713.932617,398.686829 713.131348,395.676544 712.490112,393.044159 
	C711.954346,390.844299 710.596497,389.864044 708.420715,392.242920 
	C703.470093,392.496521 700.187195,391.544952 701.801086,385.952881 
	C704.159546,386.213959 706.159607,386.257751 708.106384,386.602295 
	C714.311646,387.700500 719.281616,383.206726 718.478760,376.958099 
	C718.373657,376.139526 716.656555,374.770569 716.607361,374.809784 
	C711.593384,378.815857 707.063965,377.130280 702.561951,373.856445 
	C702.186951,373.583771 701.292053,374.026093 700.251099,374.083496 
	C696.924011,373.446136 695.512146,374.598633 695.588989,377.647247 
	C695.642700,379.780426 695.506348,381.917633 695.501587,384.053131 
	C695.484863,391.594086 695.492493,391.594116 688.057129,391.771667 
	C688.502991,385.142303 690.494385,379.092133 688.543579,372.656067 
	C688.075623,371.112152 690.916016,368.046387 692.878662,366.494995 
	C693.923828,365.668854 696.399902,366.354095 698.136963,366.757996 
	C703.434937,367.989929 703.730164,367.715729 702.788452,362.601624 
	C702.405090,360.519867 702.703064,358.321014 702.434937,356.207886 
	C701.924255,352.183655 701.213989,348.185089 700.619995,344.170898 
	C700.416016,342.792877 699.969421,341.331757 700.230042,340.027771 
	C700.848389,336.933868 702.237671,333.951904 702.542480,330.848785 
	C702.874146,327.472229 702.332458,324.009949 702.171570,320.585022 
	C704.645691,322.266693 707.119751,323.948364 709.946777,326.050629 
	C710.508179,326.658051 710.727295,326.831482 710.956909,326.991577 
z"/>
<path fill="#4DB6EA" opacity="1.000000" stroke="none" 
	d="
M763.015991,339.001526 
	C763.320862,334.620331 763.625732,330.239166 764.072021,325.476990 
	C767.840637,324.674896 769.286316,326.157318 769.094727,329.909180 
	C768.833801,335.019653 769.029724,340.153473 769.029724,344.899353 
	C769.760193,345.480194 769.991333,345.822327 770.259216,345.853943 
	C778.317566,346.805115 778.230164,346.801331 778.327759,355.108185 
	C778.530640,372.374298 778.863098,389.638916 779.087097,406.904816 
	C779.178528,413.954559 779.113220,413.955414 771.263062,414.539551 
	C770.170593,415.288116 769.889343,415.821136 769.608154,416.354187 
	C769.510132,418.571442 769.412109,420.788727 769.384277,423.418640 
	C769.362915,429.975647 769.450562,436.131409 769.059998,442.256683 
	C768.955750,443.891205 767.615540,446.566559 766.449158,446.800323 
	C763.162537,447.459106 763.549500,444.498230 763.529541,442.425323 
	C763.455933,434.780457 763.365051,427.132935 763.496948,419.490143 
	C763.557922,415.957214 762.921448,413.606750 758.631836,414.169189 
	C754.888672,414.659912 754.312622,412.392975 754.339355,409.266022 
	C754.474548,393.477844 754.479187,377.688538 754.533691,360.992615 
	C754.886963,347.558655 754.886963,347.558655 763.015991,345.265381 
	C763.015991,343.236908 763.015991,341.119232 763.015991,339.001526 
z"/>
<path fill="#13347A" opacity="1.000000" stroke="none" 
	d="
M769.892944,416.048279 
	C769.889343,415.821136 770.170593,415.288116 770.920593,414.671448 
	C770.985474,414.972656 770.581604,415.357513 769.892944,416.048279 
z"/>
<path fill="#13367C" opacity="1.000000" stroke="none" 
	d="
M686.877014,432.005371 
	C684.833923,434.171326 682.823975,436.369781 680.736694,438.492310 
	C679.233215,440.021240 677.626831,441.449066 675.654724,442.517578 
	C675.250122,436.972504 675.524963,431.809723 675.102600,426.704620 
	C674.974548,425.156616 673.137512,422.791138 671.709900,422.472412 
	C664.844238,420.939484 664.796082,421.142609 664.756042,414.147156 
	C664.740906,411.493683 665.050598,408.792297 664.648254,406.200287 
	C664.253601,403.657166 663.142456,401.225281 662.345703,398.744598 
	C661.621643,398.819580 660.897522,398.894562 660.173462,398.969574 
	C659.342468,406.564819 658.511536,414.160034 657.646790,422.064148 
	C655.428528,422.161438 653.302795,422.254700 650.960266,422.046722 
	C646.226440,417.833527 643.259583,418.686798 642.338196,424.481812 
	C641.739685,428.245361 641.135925,432.018250 637.229736,433.433838 
	C631.863220,435.378723 626.449097,437.912689 620.346191,435.653259 
	C619.834839,434.496948 619.415405,433.685516 618.818787,432.612549 
	C617.578247,431.601624 616.598022,430.631805 615.419617,430.187042 
	C614.732605,429.927673 613.728333,430.508575 612.866821,430.711426 
	C613.290466,431.493530 613.714111,432.275604 614.096558,433.521118 
	C614.055420,442.197327 614.055420,450.410126 614.055420,458.303406 
	C611.080750,460.913147 605.428284,457.025055 604.541870,463.234039 
	C604.293030,463.641479 604.162231,463.880798 604.020935,464.584167 
	C604.025452,471.010895 604.048889,476.978241 604.072327,482.945557 
	C602.954712,481.642242 601.469238,480.507019 600.783752,479.006317 
	C597.947937,472.798157 591.909302,471.825684 587.671021,477.298676 
	C585.983521,479.477722 584.490845,480.462097 581.555298,478.685791 
	C581.135498,476.724548 581.459473,475.114807 580.985352,473.790863 
	C580.487305,472.400146 579.224731,471.283203 578.296265,470.046631 
	C577.270874,471.343170 575.616577,472.525116 575.354980,473.960815 
	C574.859558,476.679779 575.212402,479.545929 575.121399,482.347961 
	C575.030823,485.138794 575.639404,488.400665 574.384644,490.545044 
	C573.571655,491.934418 569.958130,491.660522 567.615356,492.200806 
	C567.165161,492.304565 566.788818,492.728424 565.991089,493.063293 
	C561.912292,493.811615 561.105286,496.532990 561.138489,499.691040 
	C561.172241,502.910278 562.243835,505.484283 565.991821,506.396973 
	C566.010559,507.862885 565.966125,508.931580 565.921753,510.000244 
	C559.679932,514.158691 553.902832,512.330505 548.210205,508.706970 
	C547.450806,508.223663 546.403137,508.193268 544.811890,507.966736 
	C538.806274,507.364319 540.733582,511.455078 540.253418,513.974854 
	C539.817505,516.262451 541.494812,520.000916 537.080078,519.724060 
	C532.248657,519.421021 531.097412,522.018127 531.074890,525.998413 
	C526.698547,524.117615 522.310303,522.386963 517.098755,524.572021 
	C516.877625,520.540344 515.509827,518.498291 511.490814,519.024475 
	C508.190125,519.456604 507.121460,517.792358 507.183167,514.686768 
	C507.278564,509.884430 507.032806,505.075531 507.118256,500.272705 
	C507.184387,496.555573 505.614868,495.503601 501.266479,497.033569 
	C501.266479,504.076447 501.266479,511.411987 501.266479,518.596802 
	C492.138489,519.599426 492.153656,519.599487 492.120026,528.054382 
	C492.110809,530.370422 491.980804,532.685913 491.906250,535.001648 
	C490.609772,534.050476 488.989319,533.338440 488.077637,532.103271 
	C485.365631,528.429199 483.061096,529.198608 481.364746,532.692749 
	C479.709564,536.101990 478.601471,539.776855 476.989197,543.223145 
	C476.709686,540.630859 477.002411,538.094299 476.563324,535.691467 
	C476.299103,534.245544 474.895111,533.007996 473.972870,531.317993 
	C473.224731,529.128845 472.372955,527.337341 471.829468,525.456665 
	C471.347412,523.788818 470.361603,521.462891 471.065704,520.396973 
	C473.894562,516.114380 471.308594,514.866699 467.990479,513.716248 
	C461.996490,511.638062 455.618835,510.813904 450.670776,505.857178 
	C448.711945,503.894897 444.456329,503.065643 441.957886,506.564392 
	C441.864441,505.160095 442.162079,504.015381 441.760162,503.227448 
	C440.996643,501.730682 439.832825,500.438110 438.835236,499.060760 
	C437.884705,500.421112 436.403931,501.674164 436.102081,503.165771 
	C435.589874,505.696655 435.821167,508.377960 435.739960,510.996063 
	C431.858002,510.986237 430.468964,508.413788 430.281738,505.163269 
	C430.033691,500.856445 429.289185,496.287140 430.360413,492.256500 
	C432.537720,484.064056 430.771210,476.652344 427.234833,469.591675 
	C424.126740,463.386169 422.252716,457.078064 422.140961,450.167694 
	C422.085663,446.751221 420.450623,444.475952 417.316101,442.668213 
	C414.846741,441.244110 413.391724,438.078796 410.934204,436.610992 
	C408.975677,435.441254 406.184143,435.666199 403.762390,435.272034 
	C403.698059,437.672363 403.633759,440.072723 403.830322,443.130554 
	C404.107178,444.524994 404.123138,445.261902 403.726990,446.050171 
	C397.557678,447.802277 392.860229,446.983917 389.852997,441.039215 
	C389.188721,439.726105 387.298584,439.063385 386.052551,438.007263 
	C384.195221,436.433075 381.752930,435.109100 380.723846,433.086304 
	C378.337097,428.394806 376.796936,423.280334 374.602081,418.479767 
	C373.727570,416.566986 372.030609,415.030243 370.708038,413.322327 
	C368.815216,414.896545 366.922394,416.470764 364.869568,418.427246 
	C364.417664,425.407654 364.125732,432.005798 363.836639,438.540009 
	C354.249847,440.150299 355.246155,438.175751 355.162872,449.206909 
	C355.049652,464.202759 355.126343,479.200134 355.134064,494.196838 
	C355.138214,502.271637 355.150543,502.266602 363.019775,503.268127 
	C363.294006,503.303040 363.528870,503.647339 364.152344,504.139954 
	C364.152344,510.495483 364.004425,517.146301 364.234558,523.783997 
	C364.312469,526.031006 362.569855,529.771729 367.048126,529.892883 
	C371.569977,530.015259 370.027954,526.310120 370.083893,524.000488 
	C370.248016,517.222656 370.142303,510.438232 370.142303,503.344818 
	C373.366974,503.162689 375.985504,503.014771 379.021057,502.894592 
	C388.219177,503.371948 389.443604,510.449036 391.626160,517.043640 
	C392.529449,514.844299 392.957520,512.844543 392.965393,510.843140 
	C393.024811,495.760254 392.903870,480.675751 393.112274,465.595490 
	C393.142639,463.397003 394.622345,461.218597 395.371735,459.494324 
	C395.234192,481.045959 395.199249,502.134491 395.034332,523.221985 
	C395.008148,526.570190 396.078857,528.400757 399.598663,527.904053 
	C404.062622,527.273987 404.798126,529.506592 404.624115,533.381287 
	C404.311401,540.342773 404.581024,547.328735 404.368835,554.297241 
	C404.263794,557.747131 405.611633,559.226685 408.995819,558.943604 
	C404.088104,560.492432 403.138702,564.154907 404.521881,568.431458 
	C405.929230,572.782715 404.101471,574.019165 400.210754,574.501953 
	C395.156036,575.129272 390.166351,576.314331 385.104889,576.827576 
	C383.966736,576.942993 382.466583,575.447815 381.443604,574.392883 
	C377.505981,570.332520 374.723999,564.814331 367.602905,565.246155 
	C366.025604,565.341858 364.385895,563.135803 362.654297,562.216797 
	C358.663239,560.098389 354.598114,558.119568 350.147766,556.088684 
	C326.202423,534.029907 300.995178,513.405334 285.124237,484.515350 
	C261.786194,442.033081 261.084595,399.085236 287.139923,357.949799 
	C313.237885,316.747040 352.020020,297.415100 400.974426,300.270752 
	C429.041229,301.907990 453.442383,313.359894 474.703735,331.383850 
	C484.981537,340.096741 494.607269,349.583557 504.448334,358.805206 
	C510.416595,364.397797 516.002075,364.380768 521.819702,358.659302 
	C536.431702,344.288788 551.040527,329.850159 568.586731,318.999939 
	C610.356873,293.170197 661.485901,293.224304 701.962402,320.331573 
	C702.332458,324.009949 702.874146,327.472229 702.542480,330.848785 
	C702.237671,333.951904 700.848389,336.933868 700.230042,340.027771 
	C699.969421,341.331757 700.416016,342.792877 700.619995,344.170898 
	C701.213989,348.185089 701.924255,352.183655 702.434937,356.207886 
	C702.703064,358.321014 702.405090,360.519867 702.788452,362.601624 
	C703.730164,367.715729 703.434937,367.989929 698.136963,366.757996 
	C696.399902,366.354095 693.923828,365.668854 692.878662,366.494995 
	C690.916016,368.046387 688.075623,371.112152 688.543579,372.656067 
	C690.494385,379.092133 688.502991,385.142303 687.845886,392.124908 
	C687.405701,394.685120 686.980957,396.454010 686.968201,398.225891 
	C686.887207,409.485352 686.897095,420.745483 686.877014,432.005371 
M329.935181,497.382202 
	C329.957855,498.879486 329.632477,500.499695 330.105164,501.838043 
	C330.541229,503.072693 331.833862,504.004822 332.749237,505.070190 
	C333.797211,503.945099 335.233276,502.980011 335.782104,501.649048 
	C336.312347,500.363190 335.942535,498.700226 335.943329,497.202911 
	C335.948090,488.262085 335.945679,479.321289 335.945679,470.493774 
	C344.622711,469.058228 343.674438,470.364105 343.866028,461.339233 
	C344.031982,453.522858 343.889008,445.699921 343.882751,437.879883 
	C343.876495,430.102203 343.876587,430.102203 335.879883,428.994293 
	C335.879883,424.004883 335.916992,418.901001 335.863708,413.798065 
	C335.838348,411.369781 336.374573,408.205872 332.686676,408.198822 
	C329.059937,408.191925 330.031464,411.365997 329.986481,413.495941 
	C329.875854,418.735779 329.950256,423.979492 329.950256,429.071564 
	C321.466736,430.424988 321.499573,430.424744 321.560516,438.712067 
	C321.614380,446.032593 321.555725,453.353882 321.598236,460.674561 
	C321.647644,469.187073 321.671997,469.186920 329.929718,470.709686 
	C329.929718,479.202026 329.929718,487.807892 329.935181,497.382202 
M288.258728,426.614960 
	C288.235901,433.932251 288.199249,441.249542 288.193756,448.566833 
	C288.187012,457.566772 288.198242,457.566772 296.858948,459.410950 
	C296.858948,464.738617 296.779541,470.187195 296.901764,475.631287 
	C296.944885,477.550446 295.887299,480.372375 299.430023,480.487610 
	C302.939911,480.601837 302.754883,478.041382 302.747986,475.641602 
	C302.731995,470.079163 302.742889,464.516663 302.742889,459.124725 
	C311.438538,458.014008 311.379089,458.014740 311.278809,449.914795 
	C311.173859,441.434692 311.156158,432.952820 311.180176,424.471954 
	C311.200470,417.299744 311.250519,417.304993 304.229706,416.697052 
	C303.945160,416.672424 303.684082,416.376770 302.836365,415.848938 
	C302.836365,410.587250 302.856354,404.970123 302.827148,399.353241 
	C302.814331,396.889801 303.283905,393.881378 299.436615,394.043365 
	C295.692596,394.200989 296.859222,397.316010 296.807220,399.381348 
	C296.662506,405.124817 296.756989,410.874298 296.756989,416.481567 
	C288.014984,417.637421 288.014984,417.637421 288.258728,426.614960 
z"/>
<path fill="#15377B" opacity="1.000000" stroke="none" 
	d="
M725.000000,353.000000 
	C726.960449,350.235260 728.920837,347.470490 730.840332,344.227600 
	C730.668518,343.584290 730.535034,343.421234 730.399048,343.260284 
	C730.399048,343.260284 730.266724,343.050659 730.203125,342.944275 
	C731.795227,342.126312 733.450867,341.414795 735.468933,340.569275 
	C735.552124,348.350220 735.272888,356.265137 734.596802,364.653442 
	C732.882751,365.118958 731.565552,365.111145 730.248413,365.103333 
	C729.748779,365.079926 729.249146,365.056519 728.370728,364.599060 
	C726.994629,360.443329 725.997314,356.721649 725.000000,353.000000 
z"/>
<path fill="#15377B" opacity="1.000000" stroke="none" 
	d="
M718.904968,333.679657 
	C717.401001,332.634308 715.765320,331.297638 714.063965,329.627625 
	C715.589905,330.658966 717.181641,332.023651 718.904968,333.679657 
z"/>
<path fill="#15377B" opacity="1.000000" stroke="none" 
	d="
M710.863159,326.788025 
	C710.727295,326.831482 710.508179,326.658051 710.147949,326.327057 
	C710.318420,326.192749 710.576111,326.326599 710.863159,326.788025 
z"/>
<path fill="#15377B" opacity="1.000000" stroke="none" 
	d="
M713.221130,328.643524 
	C713.076660,328.667358 712.776794,328.443726 712.263916,328.037903 
	C712.389160,328.035797 712.727478,328.215912 713.221130,328.643524 
z"/>
<path fill="#15377B" opacity="1.000000" stroke="none" 
	d="
M726.135742,340.643677 
	C725.995972,340.656555 725.732727,340.423706 725.284546,340.004578 
	C725.403931,340.011536 725.708069,340.204742 726.135742,340.643677 
z"/>
<path fill="#13367C" opacity="1.000000" stroke="none" 
	d="
M464.000458,597.163513 
	C463.884369,604.734863 463.828186,612.307922 463.612427,619.876404 
	C463.554321,621.914001 463.011200,623.937744 462.690735,625.967834 
	C460.793762,625.216492 458.616669,624.823975 457.073639,623.619263 
	C455.306030,622.239258 453.782623,620.307678 452.722534,618.313049 
	C450.878052,614.842529 447.997894,613.356445 444.504181,614.230469 
	C442.789978,614.659302 441.151489,616.684326 440.184418,618.387573 
	C439.441071,619.696899 440.348511,621.992981 439.547882,623.208984 
	C438.190063,625.271179 436.273621,627.848816 434.195221,628.275024 
	C432.519501,628.618591 430.054718,626.334229 428.328003,624.783691 
	C427.163147,623.737793 426.832825,621.820618 425.846710,620.504883 
	C423.999573,618.040466 424.870422,616.535522 426.895386,614.599243 
	C428.477844,613.086060 430.647644,609.651428 430.090668,608.901245 
	C428.253265,606.426270 425.547607,604.181274 422.697845,602.990234 
	C419.902649,601.822083 419.443237,604.575134 418.971375,606.849182 
	C418.574615,608.761108 417.556091,610.544006 416.812866,612.384094 
	C415.144592,611.167786 413.407104,610.034729 411.821960,608.718323 
	C408.144196,605.664062 404.462555,602.606018 400.935974,599.381592 
	C398.913025,597.531982 396.335907,595.654846 395.495544,593.266663 
	C393.164856,586.643066 396.485657,583.278320 403.194366,585.119019 
	C407.251038,586.232117 408.802795,584.709412 408.965759,580.835815 
	C409.115295,577.282837 408.129547,572.683411 409.965881,570.480530 
	C411.807831,568.270935 416.704163,568.872192 419.916443,567.457397 
	C422.535614,566.303772 424.645233,563.993225 427.611328,562.161377 
	C430.656982,562.487732 433.072052,562.848389 436.286194,563.328369 
	C436.286194,572.000244 436.286194,580.707886 436.129517,589.823486 
	C435.721283,591.183594 435.123810,592.200378 435.287079,593.075073 
	C435.679901,595.179810 436.429169,597.217896 437.034668,599.282898 
	C438.880219,598.499695 440.762970,597.792542 442.561096,596.912415 
	C444.443665,595.991089 446.271057,594.947815 448.076660,593.880249 
	C452.947327,591.000488 457.252075,594.849792 462.011475,595.267273 
	C462.772522,596.083496 463.386475,596.623535 464.000458,597.163513 
z"/>
<path fill="#48B4E8" opacity="1.000000" stroke="none" 
	d="
M491.976929,535.464966 
	C491.980804,532.685913 492.110809,530.370422 492.120026,528.054382 
	C492.153656,519.599487 492.138489,519.599426 501.266479,518.596802 
	C501.266479,511.411987 501.266479,504.076447 501.266479,497.033569 
	C505.614868,495.503601 507.184387,496.555573 507.118256,500.272705 
	C507.032806,505.075531 507.278564,509.884430 507.183167,514.686768 
	C507.121460,517.792358 508.190125,519.456604 511.490814,519.024475 
	C515.509827,518.498291 516.877625,520.540344 516.709717,524.606812 
	C516.700562,544.130371 516.458130,563.263855 516.585999,582.394897 
	C516.619080,587.347412 515.993408,590.524597 509.979706,590.083313 
	C509.101532,590.018921 507.236786,592.562866 507.178467,593.956360 
	C506.851746,601.767334 506.988770,609.596558 506.850372,617.417480 
	C506.815674,619.378235 507.593689,622.507751 504.148071,621.899231 
	C502.987152,621.694153 501.555542,618.911194 501.499420,617.263733 
	C501.238983,609.617432 501.331482,601.954407 501.481720,594.300964 
	C501.543091,591.173767 500.571930,589.558105 497.216339,589.945374 
	C493.062927,590.424622 491.653076,588.500977 491.883209,584.408936 
	C492.172394,579.266479 491.933441,574.094238 491.933624,568.007568 
	C491.916016,562.385681 491.887177,557.691162 491.858398,552.996643 
	C491.921448,547.307190 491.984528,541.617798 491.976929,535.464966 
z"/>
<path fill="#E43743" opacity="1.000000" stroke="none" 
	d="
M409.242310,558.660156 
	C405.611633,559.226685 404.263794,557.747131 404.368835,554.297241 
	C404.581024,547.328735 404.311401,540.342773 404.624115,533.381287 
	C404.798126,529.506592 404.062622,527.273987 399.598663,527.904053 
	C396.078857,528.400757 395.008148,526.570190 395.034332,523.221985 
	C395.199249,502.134491 395.234192,481.045959 395.733459,459.387390 
	C405.181488,456.254120 405.181488,456.254120 404.139099,445.998840 
	C404.123138,445.261902 404.107178,444.524994 404.052032,443.412109 
	C408.794220,440.478668 410.428467,441.283539 410.577911,446.411804 
	C410.683594,450.038422 410.598358,453.670624 410.598358,456.844452 
	C411.489532,457.489990 411.737244,457.823242 412.008270,457.843414 
	C419.985321,458.436859 419.996155,458.431885 419.995789,466.427032 
	C419.994904,484.548676 419.917358,502.670654 420.021332,520.791687 
	C420.047119,525.283020 419.123566,528.430176 413.736176,527.914001 
	C410.475250,527.601501 410.407806,529.871582 410.396942,532.124939 
	C410.363373,539.107178 410.409088,546.090393 410.297577,553.071228 
	C410.269287,554.843628 409.771057,556.608459 409.242310,558.660156 
z"/>
<path fill="#14387E" opacity="1.000000" stroke="none" 
	d="
M663.850220,499.618195 
	C661.609619,509.829895 657.806946,518.621826 648.224548,524.752747 
	C641.376221,529.134277 634.997986,533.604431 627.024780,536.092468 
	C622.655945,537.455750 619.522522,542.626282 613.550049,540.761780 
	C613.933167,539.840088 614.396912,538.724182 615.359009,537.334351 
	C619.112183,537.498474 620.272034,536.043884 620.208984,532.824219 
	C620.063660,525.402161 620.162842,517.975281 620.162842,510.502502 
	C621.704895,510.227631 622.498596,509.942108 623.281494,509.968994 
	C630.623718,510.221283 630.416809,509.729156 630.439819,502.289551 
	C630.482483,488.521729 630.555420,474.753998 630.948120,461.020020 
	C632.924072,462.027069 634.838013,462.728210 636.151672,464.033508 
	C638.469299,466.336365 640.339111,469.082275 642.549622,471.502960 
	C644.620544,473.770905 646.919067,474.425537 649.609619,471.712463 
	C650.674438,471.812225 651.330444,471.884125 651.988098,471.904663 
	C658.644348,472.112640 658.646179,472.110321 658.681335,478.498932 
	C658.711243,483.935364 658.948914,489.381836 658.693359,494.804932 
	C658.505249,498.796722 659.960083,500.335663 663.850220,499.618195 
M632.598328,512.785339 
	C631.688171,513.158386 630.778015,513.531433 629.867859,513.904480 
	C630.182190,514.404785 630.496521,514.905090 630.810791,515.405396 
	C631.530457,514.663025 632.250122,513.920654 632.598328,512.785339 
z"/>
<path fill="#48B4E8" opacity="1.000000" stroke="none" 
	d="
M566.378357,493.004639 
	C566.788818,492.728424 567.165161,492.304565 567.615356,492.200806 
	C569.958130,491.660522 573.571655,491.934418 574.384644,490.545044 
	C575.639404,488.400665 575.030823,485.138794 575.121399,482.347961 
	C575.212402,479.545929 574.859558,476.679779 575.354980,473.960815 
	C575.616577,472.525116 577.270874,471.343170 578.296265,470.046631 
	C579.224731,471.283203 580.487305,472.400146 580.985352,473.790863 
	C581.459473,475.114807 581.135498,476.724548 581.234863,478.595764 
	C581.250793,481.145935 581.285400,483.316040 581.118286,485.470520 
	C580.796143,489.625305 581.283142,492.778473 586.818115,492.167480 
	C587.737854,492.065979 589.812378,494.230499 589.827698,495.368378 
	C590.035828,510.865204 590.024719,526.365906 589.954895,541.865051 
	C589.928528,547.721619 584.773499,544.964783 581.426392,546.657410 
	C581.341797,548.023743 581.146362,549.773987 581.139221,551.525085 
	C581.091553,563.191467 581.230774,574.861572 580.945190,586.521606 
	C580.884888,588.985291 583.110352,593.472107 578.201477,593.604065 
	C573.150452,593.739868 575.283508,589.206909 575.237549,586.732544 
	C575.023743,575.237000 575.186218,563.734619 575.178528,552.234741 
	C575.177185,550.285400 575.002502,548.336121 574.913086,546.494263 
	C566.139038,545.038696 566.154053,545.038696 566.142273,536.428406 
	C566.130676,527.928894 566.084412,519.429321 565.987549,510.465027 
	C565.966125,508.931580 566.010559,507.862885 566.057617,505.937683 
	C566.166321,501.055664 566.272339,497.030121 566.378357,493.004639 
z"/>
<path fill="#4AB5EA" opacity="1.000000" stroke="none" 
	d="
M663.973083,499.248474 
	C659.960083,500.335663 658.505249,498.796722 658.693359,494.804932 
	C658.948914,489.381836 658.711243,483.935364 658.681335,478.498932 
	C658.646179,472.110321 658.644348,472.112640 651.988098,471.904663 
	C651.330444,471.884125 650.674438,471.812225 649.515503,471.274170 
	C648.965332,456.128479 648.850525,441.472168 648.971008,426.817780 
	C648.983337,425.321899 650.407837,423.837616 651.177002,422.347931 
	C653.302795,422.254700 655.428528,422.161438 657.646790,422.064148 
	C658.511536,414.160034 659.342468,406.564819 660.173462,398.969574 
	C660.897522,398.894562 661.621643,398.819580 662.345703,398.744598 
	C663.142456,401.225281 664.253601,403.657166 664.648254,406.200287 
	C665.050598,408.792297 664.740906,411.493683 664.756042,414.147156 
	C664.796082,421.142609 664.844238,420.939484 671.709900,422.472412 
	C673.137512,422.791138 674.974548,425.156616 675.102600,426.704620 
	C675.524963,431.809723 675.250122,436.972504 675.316162,442.559662 
	C675.312622,450.331238 675.204834,457.656128 675.168762,464.981384 
	C675.135925,471.650879 675.169983,471.645325 668.697510,471.903198 
	C667.704834,471.942749 666.715393,472.063507 665.108276,472.198456 
	C664.770935,481.088623 664.433472,489.983704 663.973083,499.248474 
z"/>
<path fill="#48B4E8" opacity="1.000000" stroke="none" 
	d="
M630.615662,460.986237 
	C630.555420,474.753998 630.482483,488.521729 630.439819,502.289551 
	C630.416809,509.729156 630.623718,510.221283 623.281494,509.968994 
	C622.498596,509.942108 621.704895,510.227631 620.162842,510.502502 
	C620.162842,517.975281 620.063660,525.402161 620.208984,532.824219 
	C620.272034,536.043884 619.112183,537.498474 615.424744,537.043945 
	C614.914734,536.852356 614.837341,536.677307 614.663696,535.788452 
	C614.353394,526.812805 614.139404,518.550903 613.925354,510.289001 
	C604.285767,509.380341 604.297302,509.380341 604.299377,499.536621 
	C604.300476,494.277771 604.253601,489.018921 604.150330,483.352814 
	C604.048889,476.978241 604.025452,471.010895 604.233582,464.473206 
	C604.801819,463.683075 604.863892,463.402527 604.651367,463.061249 
	C605.428284,457.025055 611.080750,460.913147 614.055420,458.303406 
	C614.055420,450.410126 614.055420,442.197327 614.501709,433.505676 
	C616.297241,432.975891 617.646606,432.924988 618.995911,432.874115 
	C619.415405,433.685516 619.834839,434.496948 620.272949,436.116760 
	C620.281433,441.703430 620.256775,446.481689 620.264343,451.259918 
	C620.276917,459.166473 620.287842,459.147461 628.422607,460.054504 
	C629.178894,460.138824 629.885803,460.665100 630.615662,460.986237 
z"/>
<path fill="#E43743" opacity="1.000000" stroke="none" 
	d="
M436.286194,589.415527 
	C436.286194,580.707886 436.286194,572.000244 436.286194,563.328369 
	C433.072052,562.848389 430.656982,562.487732 427.917084,561.944702 
	C427.547882,548.015015 427.508667,534.267639 427.455231,520.520264 
	C427.442871,517.341248 428.684021,515.465149 432.169861,515.652283 
	C434.813538,515.794250 436.283051,514.684937 435.809875,511.408234 
	C435.821167,508.377960 435.589874,505.696655 436.102081,503.165771 
	C436.403931,501.674164 437.884705,500.421112 438.835236,499.060760 
	C439.832825,500.438110 440.996643,501.730682 441.760162,503.227448 
	C442.162079,504.015381 441.864441,505.160095 441.871887,507.002991 
	C441.697693,512.205811 440.708282,517.084900 447.974091,516.063782 
	C448.563690,515.980957 450.097900,518.037720 450.108063,519.110535 
	C450.233032,532.262268 450.269470,545.418640 449.958740,558.565063 
	C449.926575,559.926086 447.677429,561.476562 446.152313,562.472900 
	C445.187225,563.103455 443.656891,562.868774 441.878326,563.082458 
	C441.878326,570.421387 441.772552,577.554382 441.918793,584.682190 
	C442.003876,588.830017 440.609192,590.743652 436.286194,589.415527 
z"/>
<path fill="#E23541" opacity="1.000000" stroke="none" 
	d="
M464.430847,597.095703 
	C463.386475,596.623535 462.772522,596.083496 462.071472,594.803040 
	C462.009125,582.642883 462.054321,571.223145 462.051514,559.803467 
	C462.049591,551.868103 462.020111,551.868103 470.992126,550.173462 
	C470.992126,545.551941 470.766510,540.662537 471.130341,535.817505 
	C471.238770,534.373535 472.999573,533.053589 474.003296,531.676819 
	C474.895111,533.007996 476.299103,534.245544 476.563324,535.691467 
	C477.002411,538.094299 476.709686,540.630859 476.820435,543.556824 
	C476.915680,546.121887 476.915680,548.241211 476.915680,550.620850 
	C478.439972,550.772888 479.563721,551.022339 480.672913,550.968933 
	C483.596649,550.828125 484.895294,552.002258 484.874603,555.052979 
	C484.789886,567.541748 484.715851,580.033325 484.901093,592.520020 
	C484.989624,598.487244 480.417877,596.395935 476.755859,597.424377 
	C476.755859,603.369019 476.762299,609.469116 476.751282,615.569153 
	C476.748596,617.067322 477.099548,618.748718 476.536316,620.010254 
	C476.008179,621.193237 474.485138,621.932068 473.399902,622.866272 
	C472.582306,621.873535 471.084351,620.899780 471.056091,619.885010 
	C470.852600,612.582642 470.947144,605.271973 470.947144,597.354858 
	C468.680420,597.233032 466.770844,597.130432 464.430847,597.095703 
z"/>
<path fill="#49B1E7" opacity="1.000000" stroke="none" 
	d="
M531.153564,526.317444 
	C531.097412,522.018127 532.248657,519.421021 537.080078,519.724060 
	C541.494812,520.000916 539.817505,516.262451 540.253418,513.974854 
	C540.733582,511.455078 538.806274,507.364319 544.540894,508.058838 
	C545.428467,511.870209 545.909912,515.603149 546.433167,519.660339 
	C547.128784,519.760620 547.923340,520.028503 548.687927,519.960449 
	C553.465576,519.535095 554.652039,521.130920 554.191101,526.237488 
	C553.387512,535.140930 553.961975,544.168213 553.948242,553.143616 
	C553.936523,560.790894 553.929932,560.790894 545.996582,562.520386 
	C545.996582,565.970459 546.002747,569.584900 545.995422,573.199280 
	C545.972473,584.501648 546.062134,595.806458 545.822937,607.104309 
	C545.772827,609.470520 547.731750,613.716370 543.203491,613.760071 
	C538.245972,613.808044 540.380493,609.297607 540.318359,606.831299 
	C540.042114,595.868347 540.158447,584.895386 540.133728,573.029480 
	C540.134644,568.819641 540.134644,565.506409 540.134644,561.964905 
	C537.204346,561.964905 535.102722,561.964905 533.001160,561.964905 
	C532.485352,558.604492 531.969543,555.244080 531.461182,550.997437 
	C531.383667,547.074524 531.298828,544.037842 531.213989,541.001099 
	C531.273682,539.930054 531.333496,538.859009 531.404785,536.974365 
	C531.322571,533.420593 531.228882,530.680420 531.135254,527.940308 
	C531.167603,527.505676 531.199951,527.071106 531.153564,526.317444 
z"/>
<path fill="#48B4E8" opacity="1.000000" stroke="none" 
	d="
M730.175720,365.476562 
	C731.565552,365.111145 732.882751,365.118958 734.595215,365.115967 
	C735.371399,369.825043 735.968933,374.540802 736.060242,379.266327 
	C736.125732,382.656097 736.381531,385.234222 740.776672,384.731232 
	C744.138428,384.346497 744.418884,386.611603 744.408447,389.187012 
	C744.355957,402.102753 744.363464,415.018768 744.159912,428.537811 
	C743.647461,429.469360 743.324890,429.797760 743.002380,430.126160 
	C740.877686,430.274933 738.752930,430.423676 735.944641,430.620331 
	C735.944641,436.404144 736.175049,441.859070 735.806274,447.273163 
	C735.693542,448.928345 733.935242,450.471466 732.930542,452.065918 
	C732.014038,450.425415 730.417664,448.829254 730.307190,447.136200 
	C729.962830,441.858215 730.180969,436.543518 730.180969,431.398163 
	C721.837402,428.993958 721.839844,428.993958 721.864807,420.125458 
	C721.892456,410.300690 721.932434,400.475952 721.929810,390.651184 
	C721.928894,387.407196 722.171997,384.594177 726.624817,384.808685 
	C729.237061,384.934509 730.392944,383.421143 730.289917,380.692047 
	C730.103455,375.749329 730.152344,370.797668 730.175720,365.476562 
z"/>
<path fill="#4AB5EA" opacity="1.000000" stroke="none" 
	d="
M687.150513,432.269592 
	C686.897095,420.745483 686.887207,409.485352 686.968201,398.225891 
	C686.980957,396.454010 687.405701,394.685120 687.851196,392.561584 
	C695.492493,391.594116 695.484863,391.594086 695.501587,384.053131 
	C695.506348,381.917633 695.642700,379.780426 695.588989,377.647247 
	C695.512146,374.598633 696.924011,373.446136 700.351318,374.495514 
	C701.032227,378.597931 701.225281,382.235565 701.418274,385.873230 
	C700.187195,391.544952 703.470093,392.496521 708.497925,392.660950 
	C709.138000,395.446564 709.268555,397.727600 709.399109,400.008636 
	C709.322083,409.128632 709.127441,418.249878 709.223694,427.368042 
	C709.264343,431.220428 708.648560,433.815094 703.959290,433.880524 
	C703.007324,433.893799 701.395264,436.092163 701.279602,437.389557 
	C700.912476,441.506470 701.330933,445.694092 700.952393,449.808960 
	C700.838684,451.044983 699.111816,452.132629 698.123901,453.288269 
	C697.290710,452.153900 695.796265,451.052429 695.737854,449.879456 
	C695.476318,444.631134 695.624146,439.362396 695.624146,434.163910 
	C692.529297,433.548706 689.976624,433.041260 687.150513,432.269592 
z"/>
<path fill="#13367C" opacity="1.000000" stroke="none" 
	d="
M701.801086,385.952881 
	C701.225281,382.235565 701.032227,378.597931 700.738953,374.548248 
	C701.292053,374.026093 702.186951,373.583771 702.561951,373.856445 
	C707.063965,377.130280 711.593384,378.815857 716.607361,374.809784 
	C716.656555,374.770569 718.373657,376.139526 718.478760,376.958099 
	C719.281616,383.206726 714.311646,387.700500 708.106384,386.602295 
	C706.159607,386.257751 704.159546,386.213959 701.801086,385.952881 
z"/>
<path fill="#15377B" opacity="1.000000" stroke="none" 
	d="
M762.677551,339.078003 
	C763.015991,341.119232 763.015991,343.236908 763.015991,345.265381 
	C754.886963,347.558655 754.886963,347.558655 754.432617,360.531372 
	C749.005554,359.434357 747.111816,351.557617 751.411743,347.535034 
	C754.747803,344.414032 758.674805,341.924652 762.677551,339.078003 
z"/>
<path fill="#13367C" opacity="1.000000" stroke="none" 
	d="
M724.617554,352.990417 
	C725.997314,356.721649 726.994629,360.443329 727.995972,364.582520 
	C721.866150,364.432739 717.712097,359.235687 717.948975,352.117767 
	C720.061218,352.407776 722.148193,352.694336 724.617554,352.990417 
z"/>
<path fill="#14387E" opacity="1.000000" stroke="none" 
	d="
M533.058105,562.321472 
	C535.102722,561.964905 537.204346,561.964905 540.134644,561.964905 
	C540.134644,565.506409 540.134644,568.819641 540.055481,572.566406 
	C537.689209,569.559265 535.402100,566.118652 533.058105,562.321472 
z"/>
<path fill="#14387E" opacity="1.000000" stroke="none" 
	d="
M613.796448,510.663147 
	C614.139404,518.550903 614.353394,526.812805 614.517700,535.541260 
	C613.981873,532.805908 613.142700,529.609741 613.090637,526.400879 
	C613.007629,521.284119 613.448303,516.158875 613.796448,510.663147 
z"/>
<path fill="#13367C" opacity="1.000000" stroke="none" 
	d="
M709.745422,399.948059 
	C709.268555,397.727600 709.138000,395.446564 708.930298,392.747498 
	C710.596497,389.864044 711.954346,390.844299 712.490112,393.044159 
	C713.131348,395.676544 713.932617,398.686829 709.745422,399.948059 
z"/>
<path fill="#14387E" opacity="1.000000" stroke="none" 
	d="
M491.587646,553.250732 
	C491.887177,557.691162 491.916016,562.385681 491.876770,567.542297 
	C488.883453,563.264893 489.461945,558.406494 491.587646,553.250732 
z"/>
<path fill="#15377B" opacity="1.000000" stroke="none" 
	d="
M743.193298,430.359985 
	C743.324890,429.797760 743.647461,429.469360 744.149414,428.996704 
	C745.651245,428.013947 746.973694,427.175476 749.315552,425.690613 
	C748.991943,427.717346 749.119507,429.706787 748.553650,429.928802 
	C746.984985,430.544281 745.127563,430.423584 743.193298,430.359985 
z"/>
<path fill="#14387E" opacity="1.000000" stroke="none" 
	d="
M531.028809,541.284058 
	C531.298828,544.037842 531.383667,547.074524 531.365967,550.556152 
	C531.123413,547.856323 530.983521,544.711670 531.028809,541.284058 
z"/>
<path fill="#14387E" opacity="1.000000" stroke="none" 
	d="
M530.962891,528.285034 
	C531.228882,530.680420 531.322571,533.420593 531.316101,536.579468 
	C531.074158,534.208801 530.932373,531.419312 530.962891,528.285034 
z"/>
<path fill="#13367C" opacity="1.000000" stroke="none" 
	d="
M730.490234,343.389038 
	C730.535034,343.421234 730.668518,343.584290 730.897217,343.876221 
	C730.849426,343.847931 730.711487,343.686188 730.490234,343.389038 
z"/>
<path fill="#E63642" opacity="1.000000" stroke="none" 
	d="
M378.604065,502.866882 
	C375.985504,503.014771 373.366974,503.162689 370.142303,503.344818 
	C370.142303,510.438232 370.248016,517.222656 370.083893,524.000488 
	C370.027954,526.310120 371.569977,530.015259 367.048126,529.892883 
	C362.569855,529.771729 364.312469,526.031006 364.234558,523.783997 
	C364.004425,517.146301 364.152344,510.495483 364.152344,504.139954 
	C363.528870,503.647339 363.294006,503.303040 363.019775,503.268127 
	C355.150543,502.266602 355.138214,502.271637 355.134064,494.196838 
	C355.126343,479.200134 355.049652,464.202759 355.162872,449.206909 
	C355.246155,438.175751 354.249847,440.150299 363.836639,438.540009 
	C364.125732,432.005798 364.417664,425.407654 365.308289,418.394775 
	C369.193237,417.355255 370.329498,418.728851 370.212219,422.016388 
	C370.013153,427.595062 370.157471,433.186005 370.157471,438.660736 
	C378.883606,439.624115 378.882111,439.624207 379.326813,448.041046 
	C379.344177,448.369995 379.443756,448.694611 379.417480,449.479706 
	C379.392151,457.288666 379.454407,464.639191 379.421692,472.450378 
	C379.292908,474.880737 379.272400,476.850769 379.222931,478.820068 
	C379.021454,486.835815 378.811096,494.851288 378.604065,502.866882 
z"/>
<path fill="#13347A" opacity="1.000000" stroke="none" 
	d="
M473.972839,531.317993 
	C472.999573,533.053589 471.238770,534.373535 471.130341,535.817505 
	C470.766510,540.662537 470.992126,545.551941 470.992126,550.173462 
	C462.020111,551.868103 462.049591,551.868103 462.051514,559.803467 
	C462.054321,571.223145 462.009125,582.642883 461.924438,594.526794 
	C457.252075,594.849792 452.947327,591.000488 448.076660,593.880249 
	C446.271057,594.947815 444.443665,595.991089 442.561096,596.912415 
	C440.762970,597.792542 438.880219,598.499695 437.034668,599.282898 
	C436.429169,597.217896 435.679901,595.179810 435.287079,593.075073 
	C435.123810,592.200378 435.721283,591.183594 436.129517,589.823486 
	C440.609192,590.743652 442.003876,588.830017 441.918793,584.682190 
	C441.772552,577.554382 441.878326,570.421387 441.878326,563.082458 
	C443.656891,562.868774 445.187225,563.103455 446.152313,562.472900 
	C447.677429,561.476562 449.926575,559.926086 449.958740,558.565063 
	C450.269470,545.418640 450.233032,532.262268 450.108063,519.110535 
	C450.097900,518.037720 448.563690,515.980957 447.974091,516.063782 
	C440.708282,517.084900 441.697693,512.205811 441.947083,507.423645 
	C444.456329,503.065643 448.711945,503.894897 450.670776,505.857178 
	C455.618835,510.813904 461.996490,511.638062 467.990479,513.716248 
	C471.308594,514.866699 473.894562,516.114380 471.065704,520.396973 
	C470.361603,521.462891 471.347412,523.788818 471.829468,525.456665 
	C472.372955,527.337341 473.224731,529.128845 473.972839,531.317993 
z"/>
<path fill="#E63642" opacity="1.000000" stroke="none" 
	d="
M329.932434,496.898010 
	C329.929718,487.807892 329.929718,479.202026 329.929718,470.709686 
	C321.671997,469.186920 321.647644,469.187073 321.598236,460.674561 
	C321.555725,453.353882 321.614380,446.032593 321.560516,438.712067 
	C321.499573,430.424744 321.466736,430.424988 329.950256,429.071564 
	C329.950256,423.979492 329.875854,418.735779 329.986481,413.495941 
	C330.031464,411.365997 329.059937,408.191925 332.686676,408.198822 
	C336.374573,408.205872 335.838348,411.369781 335.863708,413.798065 
	C335.916992,418.901001 335.879883,424.004883 335.879883,428.994293 
	C343.876587,430.102203 343.876495,430.102203 343.882751,437.879883 
	C343.889008,445.699921 344.031982,453.522858 343.866028,461.339233 
	C343.674438,470.364105 344.622711,469.058228 335.945679,470.493774 
	C335.945679,479.321289 335.948090,488.262085 335.943329,497.202911 
	C335.942535,498.700226 336.312347,500.363190 335.782104,501.649048 
	C335.233276,502.980011 333.797211,503.945099 332.749237,505.070190 
	C331.833862,504.004822 330.541229,503.072693 330.105164,501.838043 
	C329.632477,500.499695 329.957855,498.879486 329.932434,496.898010 
z"/>
<path fill="#13347A" opacity="1.000000" stroke="none" 
	d="
M379.021057,502.894592 
	C378.811096,494.851288 379.021454,486.835815 379.222931,478.820068 
	C379.272400,476.850769 379.292908,474.880737 379.650146,472.172363 
	C379.817383,463.962891 379.661224,456.492065 379.505035,449.021240 
	C379.443756,448.694611 379.344177,448.369995 379.326813,448.041046 
	C378.882111,439.624207 378.883606,439.624115 370.157471,438.660736 
	C370.157471,433.186005 370.013153,427.595062 370.212219,422.016388 
	C370.329498,418.728851 369.193237,417.355255 365.468262,418.012543 
	C366.922394,416.470764 368.815216,414.896545 370.708038,413.322327 
	C372.030609,415.030243 373.727570,416.566986 374.602081,418.479767 
	C376.796936,423.280334 378.337097,428.394806 380.723846,433.086304 
	C381.752930,435.109100 384.195221,436.433075 386.052551,438.007263 
	C387.298584,439.063385 389.188721,439.726105 389.852997,441.039215 
	C392.860229,446.983917 397.557678,447.802277 403.726990,446.050171 
	C405.181488,456.254120 405.181488,456.254120 395.793152,458.923981 
	C394.622345,461.218597 393.142639,463.397003 393.112274,465.595490 
	C392.903870,480.675751 393.024811,495.760254 392.965393,510.843140 
	C392.957520,512.844543 392.529449,514.844299 391.626160,517.043640 
	C389.443604,510.449036 388.219177,503.371948 379.021057,502.894592 
z"/>
<path fill="#E43743" opacity="1.000000" stroke="none" 
	d="
M288.253479,426.136200 
	C288.014984,417.637421 288.014984,417.637421 296.756989,416.481567 
	C296.756989,410.874298 296.662506,405.124817 296.807220,399.381348 
	C296.859222,397.316010 295.692596,394.200989 299.436615,394.043365 
	C303.283905,393.881378 302.814331,396.889801 302.827148,399.353241 
	C302.856354,404.970123 302.836365,410.587250 302.836365,415.848938 
	C303.684082,416.376770 303.945160,416.672424 304.229706,416.697052 
	C311.250519,417.304993 311.200470,417.299744 311.180176,424.471954 
	C311.156158,432.952820 311.173859,441.434692 311.278809,449.914795 
	C311.379089,458.014740 311.438538,458.014008 302.742889,459.124725 
	C302.742889,464.516663 302.731995,470.079163 302.747986,475.641602 
	C302.754883,478.041382 302.939911,480.601837 299.430023,480.487610 
	C295.887299,480.372375 296.944885,477.550446 296.901764,475.631287 
	C296.779541,470.187195 296.858948,464.738617 296.858948,459.410950 
	C288.198242,457.566772 288.187012,457.566772 288.193756,448.566833 
	C288.199249,441.249542 288.235901,433.932251 288.253479,426.136200 
z"/>
<path fill="#13347A" opacity="1.000000" stroke="none" 
	d="
M630.948120,461.020020 
	C629.885803,460.665100 629.178894,460.138824 628.422607,460.054504 
	C620.287842,459.147461 620.276917,459.166473 620.264343,451.259918 
	C620.256775,446.481689 620.281433,441.703430 620.364807,436.461639 
	C626.449097,437.912689 631.863220,435.378723 637.229736,433.433838 
	C641.135925,432.018250 641.739685,428.245361 642.338196,424.481812 
	C643.259583,418.686798 646.226440,417.833527 650.960266,422.046722 
	C650.407837,423.837616 648.983337,425.321899 648.971008,426.817780 
	C648.850525,441.472168 648.965332,456.128479 649.107483,471.222534 
	C646.919067,474.425537 644.620544,473.770905 642.549622,471.502960 
	C640.339111,469.082275 638.469299,466.336365 636.151672,464.033508 
	C634.838013,462.728210 632.924072,462.027069 630.948120,461.020020 
z"/>
<path fill="#13347A" opacity="1.000000" stroke="none" 
	d="
M565.991089,493.063293 
	C566.272339,497.030121 566.166321,501.055664 565.994507,505.540466 
	C562.243835,505.484283 561.172241,502.910278 561.138489,499.691040 
	C561.105286,496.532990 561.912292,493.811615 565.991089,493.063293 
z"/>
<path fill="#13347A" opacity="1.000000" stroke="none" 
	d="
M618.818787,432.612549 
	C617.646606,432.924988 616.297241,432.975891 614.542847,433.042236 
	C613.714111,432.275604 613.290466,431.493530 612.866821,430.711426 
	C613.728333,430.508575 614.732605,429.927673 615.419617,430.187042 
	C616.598022,430.631805 617.578247,431.601624 618.818787,432.612549 
z"/>
<path fill="#13347A" opacity="1.000000" stroke="none" 
	d="
M604.541870,463.234039 
	C604.863892,463.402527 604.801819,463.683075 604.252563,464.013794 
	C604.162231,463.880798 604.293030,463.641479 604.541870,463.234039 
z"/>
<path fill="#13347A" opacity="1.000000" stroke="none" 
	d="
M632.784058,512.981812 
	C632.250122,513.920654 631.530457,514.663025 630.810791,515.405396 
	C630.496521,514.905090 630.182190,514.404785 629.867859,513.904419 
	C630.778015,513.531433 631.688171,513.158386 632.784058,512.981812 
z"/>
<path fill="#15377B" opacity="1.000000" stroke="none" 
	d="
M379.417480,449.479706 
	C379.661224,456.492065 379.817383,463.962891 379.745087,471.711700 
	C379.454407,464.639191 379.392151,457.288666 379.417480,449.479706 
z"/>
</svg>